<svg xmlns="http://www.w3.org/2000/svg" xmlns:xlink="http://www.w3.org/1999/xlink" version="1.1" style="enable-background:new 0 0 19.118 19.118;" xml:space="preserve" width="18" height="19"><rect id="backgroundrect" width="100%" height="100%" x="0" y="0" fill="none" stroke="none"/>
















<g class="currentLayer" style=""><title>Layer 1</title><g id="svg_1" class="" fill="#ffffff" fill-opacity="1">
	<g id="svg_2" fill="#ffffff" fill-opacity="1">
		<path style="" d="M17.91722549873143,0 H2.181227339322857 C1.750830192144207,0 1.4009999986246149,0.33000000000000007 1.4009999986246149,0.7360000000000001 v17.646 c0,0.40800000000000003 0.3498301935195924,0.7360000000000001 0.7802273406982423,0.7360000000000001 h15.734938067913056 c0.4303971471786499,0 0.7802273406982423,-0.32800000000000007 0.7802273406982423,-0.7360000000000001 V0.7360000000000001 C18.697452839429666,0.32900000000000007 18.34656255441456,0 17.91722549873143,0 zM17.136998158033187,17.646 H2.9614546800210992 V1.473 h14.174483386516572 V17.646 z" id="svg_3" fill="#ffffff" fill-opacity="1"/>
		<path style="" d="M8.014910839135938,4.668 H5.159024350221447 v2.693 h2.854826397418976 V4.668 H8.014910839135938 zM7.667200828607372,5.562 L6.399331399972729,6.758 c-0.0328628363609314,0.03200000000000001 -0.08904768562316896,0.03200000000000001 -0.12191052198410036,0 L5.504614177758984,6.026 c-0.0328628363609314,-0.03200000000000001 -0.0328628363609314,-0.08400000000000002 0,-0.11700000000000002 l0.1855160117149353,-0.17200000000000001 c0.0328628363609314,-0.03300000000000001 0.08798759412765506,-0.03300000000000001 0.12297061347961429,0 L6.339966276223949,6.236 l1.0208681101799013,-0.9630000000000001 c0.03498301935195924,-0.03200000000000001 0.08904768562316896,-0.03200000000000001 0.12403070497512819,0 l0.1833958287239075,0.17400000000000002 C7.702183847959331,5.478 7.702183847959331,5.53 7.667200828607372,5.562 z" id="svg_4" fill="#ffffff" fill-opacity="1"/>
		<rect x="8.610681533813477" y="5.27400016784668" style="" width="6.531223297119141" height="1.4809999465942383" id="svg_5" fill="#ffffff" fill-opacity="1"/>
		<path style="" d="M8.014910839135938,8.18 H5.159024350221447 v2.692 h2.854826397418976 V8.18 H8.014910839135938 zM7.667200828607372,9.073 l-1.2678694286346435,1.196 c-0.0328628363609314,0.03200000000000001 -0.08904768562316896,0.03200000000000001 -0.12191052198410036,0 L5.504614177758984,9.537 c-0.0328628363609314,-0.03200000000000001 -0.0328628363609314,-0.08400000000000002 0,-0.11600000000000002 l0.1855160117149353,-0.17300000000000001 c0.0328628363609314,-0.03200000000000001 0.08798759412765506,-0.03200000000000001 0.12297061347961429,0 L6.339966276223949,9.747 l1.0208681101799013,-0.9630000000000001 c0.03498301935195924,-0.03200000000000001 0.08904768562316896,-0.03200000000000001 0.12403070497512819,0 l0.1833958287239075,0.17300000000000001 C7.702183847959331,8.989 7.702183847959331,9.041 7.667200828607372,9.073 z" id="svg_6" fill="#ffffff" fill-opacity="1"/>
		<rect x="8.610681533813477" y="8.78499984741211" style="" width="6.531223297119141" height="1.4809999465942383" id="svg_7" fill="#ffffff" fill-opacity="1"/>
		<rect x="5.160084247589111" y="11.769000053405762" style="" width="2.8548264503479004" height="2.693000078201294" id="svg_8" fill="#ffffff" fill-opacity="1"/>
		<rect x="8.610681533813477" y="12.37600040435791" style="" width="6.531223297119141" height="1.4800000190734863" id="svg_9" fill="#ffffff" fill-opacity="1"/>
	</g>
</g><g id="svg_10" class="">
</g><g id="svg_11" class="">
</g><g id="svg_12" class="">
</g><g id="svg_13" class="">
</g><g id="svg_14" class="">
</g><g id="svg_15" class="">
</g><g id="svg_16" class="">
</g><g id="svg_17" class="">
</g><g id="svg_18" class="">
</g><g id="svg_19" class="">
</g><g id="svg_20" class="">
</g><g id="svg_21" class="">
</g><g id="svg_22" class="">
</g><g id="svg_23" class="">
</g><g id="svg_24" class="">
</g></g></svg>